<svg width="46" height="50" viewBox="0 0 46 50" fill="none" xmlns="http://www.w3.org/2000/svg">
<g clip-path="url(#clip0_788_2388)">
<path d="M22.8393 0.0156977C23.6427 -0.101518 25.0751 0.486703 25.8143 0.822288C28.2178 1.91339 30.1062 3.45754 31.6276 5.62814C32.0318 6.20474 32.432 6.80911 32.7388 7.44379C32.947 7.87443 33.7764 10.1263 33.9104 10.2197C34.1986 10.4205 39.8176 10.251 40.6922 10.3786C40.8797 10.406 41.0435 10.4511 41.2009 10.5602C41.4896 10.7603 41.6968 11.0528 41.8052 11.3839C42.0822 12.2302 42.1283 13.4128 42.2394 14.3179C42.391 15.5533 42.5652 16.7859 42.7039 18.0229C42.8408 19.2434 42.9393 20.4848 43.1496 21.6946C42.8052 21.4955 42.461 21.2164 42.1245 20.9959C41.3229 20.4707 40.5316 19.9155 39.7267 19.3966L35.9873 17.0259C35.5911 16.7749 34.4526 16.0838 34.1855 15.8201C34.1462 15.5855 34.1079 15.3594 34.053 15.1257C33.6529 13.4242 31.6496 12.3133 30.0398 13.1007C29.8449 13.196 29.637 13.3588 29.4592 13.4889C29.5451 13.1599 29.672 12.8351 29.7422 12.5035C29.9917 11.3234 29.6493 10.4468 29.1511 9.40507C27.7523 6.48011 25.9439 4.8825 22.9601 3.75779C22.3633 3.92459 21.4422 4.41669 20.8722 4.71726C18.816 5.80153 16.9154 8.25721 16.2888 10.504C16.5007 10.479 16.7185 10.4675 16.9318 10.4528C17.4629 10.4029 18.1619 10.4094 18.7048 10.3995L21.8142 10.3424C23.7126 10.3005 25.6571 10.1614 27.5467 10.1728C26.5348 11.5285 25.1663 13.0043 24.0571 14.3019C23.0674 15.4596 22.0596 16.6503 21.0555 17.7903C19.7975 19.1037 18.6679 20.5004 17.3474 21.7633C16.1226 22.9347 14.9624 25.0018 13.2504 25.387C12.6621 25.5194 11.6681 25.4697 11.1455 25.1864C9.36427 24.2209 7.93113 22.5612 6.47818 21.1733C5.41197 20.1539 4.25762 19.0696 3.04297 18.2855C3.31158 16.1087 3.57402 13.8895 3.9495 11.7253C4.17473 10.4269 5.42437 10.434 6.46578 10.4361C8.30052 10.44 10.1544 10.3804 11.9974 10.413C12.658 8.33481 13.2564 6.92756 14.596 5.15005C16.441 2.70211 19.7705 0.395269 22.8393 0.0156977Z" fill="#FC640C"/>
<path d="M14.2202 12.9989C15.7788 12.7132 17.272 13.753 17.5493 15.3174C17.8266 16.8819 16.7821 18.374 15.2207 18.6443C13.6702 18.9127 12.1949 17.8743 11.9196 16.3208C11.6442 14.7673 12.6724 13.2828 14.2202 12.9989Z" fill="#F6F2EF"/>
<path d="M27.4736 17.5184C28.3469 17.4076 28.7998 17.555 29.5171 18.0297C30.463 18.6556 31.2201 18.5457 32.2671 18.2953C32.8371 18.7931 33.2902 19.5513 33.5953 20.2212C34.1994 21.5481 35.4137 22.7973 34.9234 24.3489C34.7027 25.0475 34.238 25.6837 33.9339 26.3523L32.0239 30.4552C31.2553 32.1441 30.7323 34.3067 28.8251 34.9803C27.8786 35.3145 27.0077 35.3215 26.1035 34.8771C24.8405 34.2358 23.5882 33.5124 22.3346 32.845C21.3452 32.3182 20.1075 31.725 19.1878 31.1181C17.767 30.1803 17.4328 27.8196 18.5055 26.4946C19.2078 25.627 19.9566 24.7641 20.7003 23.9069L23.8269 20.2719C24.1957 19.8487 24.669 19.3298 25.0016 18.8874C25.7468 17.8963 26.2576 17.7043 27.4736 17.5184Z" fill="#FC640C"/>
<path d="M42.9993 25.2234C43.1817 25.2114 43.405 25.2182 43.5911 25.2184C43.6882 26.4926 43.9623 28.1053 44.1356 29.4099L45.4998 39.3436L45.8314 41.8506C46.1729 44.3511 46.1898 46.2438 44.2757 48.1785C43.2735 49.1914 42.4255 49.5611 41.0901 49.967C40.9114 49.1901 40.3301 48.2846 39.9185 47.5907C38.7315 45.4763 37.5997 43.3296 36.4495 41.1986C35.7392 39.8824 34.6361 39.016 34.5105 37.437C34.4045 36.1025 35.1183 35.3289 35.7501 34.2662L38.2963 30.0594C39.5448 27.999 40.228 25.4413 42.9993 25.2234Z" fill="#FC640C"/>
<path d="M17.3965 37.371C18.163 37.2811 23.1382 38.4794 24.1679 38.6689C24.3545 38.7032 24.7822 38.8934 24.9628 39.0035C25.6316 39.418 26.1179 40.0494 26.3123 40.8118C26.7016 42.339 25.772 43.3285 25.1122 44.582C24.2874 46.1488 23.4826 47.746 22.5518 49.2585C22.4012 49.5143 22.3027 49.6928 22.1765 49.9606C19.5463 49.9704 16.843 49.9048 14.2207 49.9559C14.2934 49.4039 14.2499 48.0821 14.2496 47.4506L14.2416 42.6526C14.2367 42.1464 14.2392 41.6219 14.2265 41.1178C14.176 39.0937 15.338 37.6019 17.3965 37.371Z" fill="#FC640C"/>
<path d="M2.64643 21.7725C2.82312 21.9025 4.02002 23.5997 4.19852 23.8599C5.5556 25.8263 7.06843 27.649 8.47414 29.5791C9.36498 30.8023 9.6427 31.8615 9.14878 33.3462C8.52958 35.2073 6.64375 35.7534 5.02102 36.5124C3.53776 37.1737 1.98534 38.0543 0.478516 38.6911C0.595733 38.148 0.672949 37.3206 0.741702 36.7589L1.1686 33.39C1.68782 29.5286 2.24582 25.6476 2.64643 21.7725Z" fill="#FC640C"/>
<path d="M6.59336 41.1579C7.27942 41.1347 7.84834 41.2619 8.43968 41.6027C9.48742 42.2075 9.93863 43.1717 10.2288 44.2943C10.7158 46.1776 11.1018 48.0862 11.5971 49.9635L7.4442 49.962C6.73251 49.9618 5.90443 49.9794 5.20104 49.9422C2.30148 49.6606 0.247988 47.3837 0.0351562 44.5053C1.36661 43.7504 2.71901 43.0434 4.03461 42.2583C4.86187 41.7645 5.61824 41.2728 6.59336 41.1579Z" fill="#FC640C"/>
<path d="M30.334 45.2791C31.5084 45.1996 32.2885 45.6818 33.1478 46.4053C33.7561 46.8777 34.3325 47.3617 34.8862 47.8986C35.8001 48.7847 37.0607 49.3343 38.1457 49.9974C37.3811 49.9596 36.5792 49.9834 35.8109 49.988L32.8533 49.9801L25.0254 49.962L26.9119 47.7048C28.0126 46.3713 28.4651 45.4852 30.334 45.2791Z" fill="#FC640C"/>
</g>
<defs>
<clipPath id="clip0_788_2388">
<rect width="46" height="50" fill="white"/>
</clipPath>
</defs>
</svg>
